<?xml version="1.0" encoding="UTF-8"?>
<svg id="_レイヤー_2" data-name="レイヤー_2" xmlns="http://www.w3.org/2000/svg" viewBox="0 0 142.22 115.69">
  <g id="_レイヤー_2-2" data-name="_レイヤー_2">
    <g id="_レイヤー_2-2">
      <g id="_x32_069a460dcf28295e231f3111e0426ac">
        <path d="M141.8,64.43c-.83-5.87-2.87-11.44-6.05-16.55-2.77-4.46-6.33-8.42-10.57-11.79h.01L80.61,1.84s-.08-.06-.1-.08c-1.48-1.14-3.49-1.76-5.65-1.76s-4.25.63-5.87,1.76c-1.74,1.22-2.74,2.83-2.81,4.55-.06,1.6.7,3.15,2.16,4.35,2.87,2.26,5.73,4.58,8.6,6.89,2.78,2.25,5.65,4.56,8.5,6.82l-54.6-.04c-6.24,0-10.5,2.93-11.37,7.84-.38,2.15.29,4.51,1.81,6.33,1.61,1.92,3.94,2.98,6.58,2.98h4.16c5.75,0,11.53,0,17.29-.03h5.5L5.25,78.1l-.2.14c-2.77,2.12-4.58,5.1-4.97,8.16-.3,2.32.25,4.44,1.57,6.14,1.58,2.02,4.03,3.13,6.93,3.13s5.74-1.08,8.16-3.04l26.76-21.9c-.11,1.07-.25,2.64-.24,3.78.03,1.8.61,5.42,1.53,8.36,1.89,6.04,5.08,11.56,9.48,16.41,4.57,5.05,10.15,9.05,16.56,11.89,6.78,3,14.07,4.52,21.66,4.52h.07c7.62-.02,14.93-1.56,21.73-4.6,6.42-2.88,11.99-6.89,16.55-11.94,4.39-4.87,7.58-10.41,9.47-16.44.93-2.98,1.54-6.07,1.79-9.18.23-3.01.13-6.08-.29-9.11h0ZM93.04,93.36c-16.74,0-30.31-12.14-30.31-27.12s13.57-27.12,30.31-27.12,30.31,12.14,30.31,27.12-13.57,27.12-30.31,27.12ZM110.52,63.86c.25,4.47-1.54,8.62-4.67,11.69-3.19,3.13-7.74,5.1-12.83,5.1s-9.64-1.97-12.83-5.1c-3.13-3.07-4.92-7.22-4.67-11.69.24-4.34,2.36-8.17,5.55-10.89,3.14-2.67,7.35-4.3,11.95-4.3s8.81,1.63,11.95,4.3c3.19,2.71,5.31,6.54,5.55,10.89Z"/>
      </g>
    </g>
  </g>
</svg>