<?xml version="1.0" encoding="UTF-8"?>
<svg id="_レイヤー_2" data-name="レイヤー_2" xmlns="http://www.w3.org/2000/svg" viewBox="0 0 141.78 138.24">
  <g id="_レイヤー_2-2" data-name="_レイヤー_2">
    <g id="_レイヤー_2-2">
      <path d="M105.69,43.42c-1.27,1.29-3.02,2.08-4.96,2.08-.15,0-.29,0-.43,0h.02-.16c-1.99,0-3.79-.79-5.11-2.07h0c-1.25-1.36-2.01-3.18-2.01-5.18v-.26h0v-.24c0-1.97.81-3.74,2.12-5.01h0c1.36-1.28,3.2-2.07,5.22-2.07h.43c1.96,0,3.73.79,5.01,2.08h0c1.21,1.32,1.95,3.09,1.95,5.03v.24h0v.26c0,2-.78,3.82-2.07,5.17h0v-.02ZM106.93,96.76c0,.65-.23.95-.76.95h-11.66c-.46,0-.83-.37-.83-.83v-.12h0v-45.48c0-.59.24-.83.78-.83h11.7c.53,0,.76.29.76.83v45.48h0ZM86.84,97.65h-12.43c-.41,0-.75-.27-.86-.65h0l-4.85-14.06h-21.98l-4.49,13.88c-.1.48-.52.84-1.02.84h-11.2c-.65,0-.83-.36-.65-1.06l19.02-54.76c.17-.59.35-1.24.59-1.95.23-1.14.35-2.46.35-3.81v-.03h0v-.08c0-.28.2-.52.47-.58h15.31c.47,0,.71.17.77.47l21.56,60.84c.18.64,0,.95-.59.95h0ZM116.67,0H25.09C11.23,0,0,11.23,0,25.09v.02h0v88.04c0,13.86,11.23,25.09,25.09,25.09h91.6c13.86,0,25.09-11.23,25.09-25.09v-.02h0V25.09C141.78,11.23,130.55,0,116.69,0c0,0-.02,0-.02,0ZM62.21,61.61c-.59-1.83-1.12-3.6-1.71-5.44s-1.12-3.55-1.59-5.26c-.47-1.65-.88-3.19-1.3-4.61h-.12c-.64,3.08-1.33,5.64-2.16,8.13l.15-.51c-.88,2.84-1.77,5.79-2.72,8.74-.83,3.01-1.71,5.79-2.6,8.27h15c-.35-1.25-.83-2.72-1.36-4.26-.53-1.59-1.06-3.3-1.59-5.07h0Z"/>
    </g>
  </g>
</svg>