<?xml version="1.0" encoding="UTF-8"?>
<svg id="_レイヤー_2" data-name="レイヤー_2" xmlns="http://www.w3.org/2000/svg" viewBox="0 0 132.67 132.67">
  <g id="_レイヤー_2-2" data-name="_レイヤー_2">
    <g id="_レイヤー_2-2">
      <path d="M72.15,60.98h-12.43c0,10.71-.05,21.36-.05,32.09.15,1.46.23,3.15.23,4.86,0,3.58-.36,7.08-1.04,10.46l.06-.34c-1.82,3.81-6.53,3.32-8.66,2.65-2-1.07-3.57-2.69-4.56-4.67l-.03-.06c-.19-.42-.43-.77-.71-1.09h0l-10.09,6.22c1.62,3.49,4.13,6.34,7.24,8.34l.08.05c3.38,1.89,7.41,3,11.7,3,2.14,0,4.22-.28,6.2-.8l-.17.04c4.37-1.1,7.93-3.94,9.97-7.72l.04-.08c1.59-4.04,2.5-8.73,2.5-13.63,0-1.72-.12-3.41-.33-5.07l.02.19c.07-11.36,0-22.72,0-34.16l.02-.31v.03ZM121.81,101.03c-.97-6.05-4.91-11.14-16.6-15.88-4.07-1.91-8.59-3.23-9.94-6.3-.28-.7-.44-1.51-.44-2.35,0-.55.07-1.08.19-1.59v.04c.91-2.43,3.22-4.14,5.93-4.14.88,0,1.72.18,2.47.5l-.04-.02c2.44.84,4.37,2.63,5.37,4.92l.02.06c3.81-2.49,7.05-4.57,9.7-6.22-.96-1.63-2.03-3.05-3.25-4.32h0c-3.39-3.59-8.19-5.83-13.52-5.83-.76,0-1.5.04-2.23.13h.09l-3.9.48c-3.79.86-7.02,2.83-9.44,5.54v.02c-2.38,2.94-3.81,6.72-3.81,10.83,0,5.66,2.71,10.68,6.9,13.85l.04.03c7.55,5.64,18.58,6.88,19.99,12.19,1.33,6.47-4.81,8.54-10.87,7.79-4.23-.96-7.7-3.67-9.66-7.31l-.04-.08-10.12,5.81c1.19,2.37,2.69,4.4,4.47,6.13h0c9.62,9.71,33.66,9.21,37.98-5.55.5-1.61.79-3.46.79-5.37,0-1.33-.14-2.62-.4-3.87l.02.12.25.38h.05ZM0,0h132.67v132.67H0V0h0Z"/>
    </g>
  </g>
</svg>