<?xml version="1.0" encoding="UTF-8"?>
<svg id="_レイヤー_2" data-name="レイヤー_2" xmlns="http://www.w3.org/2000/svg" viewBox="0 0 142.92 143.79">
  <g id="_レイヤー_2-2" data-name="_レイヤー_2">
    <g id="_レイヤー_2-2">
      <path d="M106.07,134.83c-.53.28-.49.37.02.11.17-.07.3-.16.42-.27,0-.06-.15,0-.45.16h.01ZM107.14,134.24c-.17.14-.15.16.05.07.16-.09.3-.18.3-.21,0-.12-.07-.09-.35.14ZM107.83,133.82c-.17.14-.15.16.05.07.17-.09.3-.19.3-.22,0-.11-.07-.09-.35.14h0ZM108.54,133.4c-.17.14-.15.16.04.07.17-.09.3-.18.3-.21,0-.11-.07-.09-.34.14h0ZM109.49,132.77c-.49.33-.66.54-.21.31.3-.18.81-.59.72-.59-.19.07-.35.19-.51.28h0ZM66.78.04c-.33.02-1.3.11-2.16.18C44.31,2.07,25.3,13.07,13.26,30.02,6.6,39.31,2.28,50.1.65,61.43c-.58,3.95-.65,5.12-.65,10.48s.07,6.51.65,10.46c3.89,27.01,22.99,49.69,48.87,58.09,4.66,1.5,9.54,2.53,15.1,3.16,2.16.23,11.51.23,13.67,0,9.61-1.08,17.73-3.46,25.76-7.59,1.23-.63,1.46-.8,1.3-.93-3.93-5.22-7.79-10.44-11.65-15.71l-11.42-15.52-14.31-21.32c-4.77-7.14-9.56-14.25-14.42-21.32-.05,0-.11,9.48-.14,21.04-.05,20.24-.05,21.07-.3,21.53-.25.56-.67,1.03-1.23,1.29-.44.21-.84.26-2.95.26h-2.42l-.63-.4c-.39-.26-.72-.61-.93-1.03l-.3-.63.02-28.18.05-28.18.44-.56c.28-.35.63-.63,1.02-.84.59-.28.82-.33,3.23-.33,2.84,0,3.31.11,4.05.93,5.79,8.68,11.56,17.39,17.24,26.12,9.29,14.16,21.96,33.49,28.19,42.98l11.33,17.25.56-.37c5.44-3.65,10.4-8,14.67-12.96,9-10.37,14.85-23.13,16.82-36.75.58-3.95.65-5.13.65-10.48s-.07-6.51-.65-10.46c-3.89-27.01-22.99-49.69-48.87-58.1-4.84-1.54-9.82-2.59-14.86-3.13-1.35-.14-10.59-.31-11.75-.18h-.01ZM96.02,43.53c.67.32,1.18.93,1.42,1.64.12.38.14,8.19.12,25.79l-.05,25.27-4.42-6.83-4.44-6.84v-18.35c0-11.9.05-18.56.11-18.89.21-.75.72-1.38,1.4-1.78.55-.28.77-.31,2.98-.31,2.07,0,2.42.02,2.88.28h0v.02Z"/>
    </g>
  </g>
</svg>