<?xml version="1.0" encoding="UTF-8"?>
<svg id="_レイヤー_2" data-name="レイヤー_2" xmlns="http://www.w3.org/2000/svg" viewBox="0 0 141.56 138.02">
  <g id="_レイヤー_2-2" data-name="_レイヤー_2">
    <g id="_レイヤー_2-2">
      <path d="M114.72,91.66c-1.65,2.33-3.89,4.13-6.51,5.22l-.1.04c-2.95,1.19-6.36,1.88-9.94,1.88h-.78.04-.19c-2.77,0-5.47-.28-8.08-.81l.26.04c-2.26-.4-4.28-1.06-6.16-1.95l.15.06c-.39-.19-.66-.59-.66-1.04v-.08h0v-10.28c0-.2.09-.39.24-.51h0c.07-.04.14-.06.23-.06.12,0,.23.05.31.12h0c2.11,1.26,4.55,2.27,7.15,2.86l.17.03c2.07.56,4.45.88,6.91.88h.06c.18,0,.4.02.61.02,1.54,0,3.02-.31,4.36-.88l-.08.03c.94-.44,1.59-1.38,1.59-2.48h0c-.08-.99-.62-1.84-1.4-2.35h-.01c-1.66-1.1-3.57-2.04-5.59-2.73l-.18-.05c-3.2-1.14-5.96-2.58-8.5-4.32l.12.08c-1.84-1.33-3.35-3-4.45-4.94l-.04-.08c-.85-1.67-1.35-3.63-1.35-5.72v-.33h0c0-2.62.76-5.09,2.04-7.18l-.03.06c1.51-2.36,3.61-4.21,6.1-5.39l.09-.04c2.8-1.31,6.07-2.08,9.53-2.08.32,0,.63,0,.95.02h-.05c2.58,0,5.12.19,7.59.57l-.28-.03c1.89.26,3.6.74,5.21,1.41l-.14-.05c.26.09.47.28.59.52h0c.07.21.11.46.12.71h0v9.62h0c0,.25-.11.45-.29.59h0c-.16.06-.34.09-.53.09s-.37-.03-.54-.09h0c-1.63-.88-3.53-1.57-5.53-1.98l-.14-.02c-1.98-.47-4.25-.75-6.59-.76h-.42c-1.12,0-2.2.15-3.22.44l.08-.02c-.76.17-1.39.59-1.82,1.17h0c-.29.46-.46,1.01-.47,1.6h0c.03.59.25,1.12.6,1.54h0c.55.64,1.22,1.18,1.97,1.57l.04.02c1.35.71,2.77,1.35,4.18,1.94,3.47,1.18,6.48,2.64,9.26,4.41l-.17-.1c1.94,1.23,3.51,2.88,4.62,4.83l.03.07c.86,1.67,1.36,3.63,1.36,5.72v.37-.02.26c0,2.83-.86,5.46-2.33,7.64l.03-.05h-.02ZM72.9,68.72c-2.36,3.26-5.59,5.75-9.35,7.15l-.14.05c-3.66,1.28-7.87,2.02-12.26,2.02-.35,0-.71,0-1.07-.01h.05c-1.42,0-2.36,0-2.95-.06s-1.42-.06-2.53-.06v19.03c0,.38-.28.69-.65.74h-11.45c-.47,0-.71-.24-.71-.77v-60.68c0-.41.17-.65.59-.65,1,0,1.94,0,3.3-.06,1.42-.06,2.89-.06,4.48-.12s3.3-.06,5.13-.12,3.6-.06,5.37-.06c.3,0,.65,0,1,0,3.99,0,7.83.67,11.4,1.92l-.25-.08c3.09,1.07,5.73,2.72,7.91,4.84h0c1.85,1.85,3.31,4.09,4.26,6.59l.04.13c.85,2.28,1.35,4.91,1.35,7.67h0c0,.26.02.57.02.87,0,4.36-1.33,8.41-3.61,11.77l.05-.08h0l.02-.02ZM116.49,0H25.05C11.22,0,0,11.21,0,25.05v.02h0v87.9c0,13.83,11.21,25.05,25.05,25.05h91.46c13.83,0,25.05-11.21,25.05-25.05v-.02h0V25.05C141.56,11.22,130.35,0,116.51,0c0,0-.02,0-.02,0ZM58.1,47.89c-1.87-.76-4.04-1.19-6.31-1.19-.23,0-.45,0-.68,0h.03c-1.53,0-2.89,0-4.01.06-.26-.02-.57-.03-.88-.03-.54,0-1.08.03-1.6.09h.06v19.81c.83.06,1.59.12,2.3.12h3.15c2.42,0,4.74-.39,6.91-1.1l-.16.04c1.94-.58,3.58-1.67,4.82-3.11h0c1.15-1.52,1.85-3.44,1.85-5.51,0-.2,0-.4-.02-.6v.03-.29c0-1.83-.51-3.54-1.38-5l.02.04c-.99-1.52-2.4-2.69-4.07-3.34l-.06-.02h.03Z"/>
    </g>
  </g>
</svg>