<?xml version="1.0" encoding="UTF-8"?>
<svg id="_レイヤー_2" data-name="レイヤー_2" xmlns="http://www.w3.org/2000/svg" viewBox="0 0 143.36 64.1">
  <g id="_レイヤー_2-2" data-name="_レイヤー_2">
    <g id="_レイヤー_2-2">
      <path d="M113.07,45.04c-1.28.54-2.55.81-3.84.81-2.04,0-3.88-.35-5.51-1.06-1.57-.67-2.98-1.67-4.12-2.93-1.12-1.25-1.98-2.71-2.58-4.39s-.89-3.5-.89-5.44.3-3.84.89-5.55c.6-1.71,1.45-3.2,2.56-4.46,1.14-1.29,2.54-2.31,4.12-2.99,1.74-.75,3.62-1.12,5.51-1.09,1.37,0,2.69.22,3.97.62,1.28.41,2.44,1.02,3.47,1.82s1.89,1.79,2.55,2.96c.69,1.24,1.11,2.62,1.23,4.04h-5.58c-.35-1.49-1.02-2.61-2.01-3.36-1.05-.77-2.33-1.16-3.63-1.12-1.32,0-2.44.26-3.36.76s-1.67,1.19-2.24,2.05c-.57.87-.99,1.84-1.25,2.93s-.39,2.22-.39,3.4.13,2.21.39,3.27.68,2.01,1.25,2.86,1.32,1.53,2.24,2.04,2.04.76,3.36.76c1.94,0,3.45-.5,4.5-1.48,1.06-.98,1.67-2.4,1.86-4.26h-5.9v-4.4h11.18v14.41h-3.73l-.6-3.02c-.89,1.22-2.08,2.19-3.46,2.81h0ZM130.36,18.59v21.69h13v4.95h-18.84v-26.64h5.85-.01ZM16.65,32.02c0-4.23,2.05-8.22,5.66-11.72l6.62,25.21h4.56l6.42-22.79,6.33,22.79h4.58l7.89-29h-5.14l-5.14,22.25-6.21-22.25h-4.71l-6.21,22.25-5.02-21.69c8.89-6.12,23.1-10.09,39.11-10.09,15,0,28.45,3.16,37.4,8.63C93.04,6.44,75.52.01,55.52,0,24.86,0,0,14.34,0,32.04s24.85,32.06,55.51,32.06c19.94,0,37.4-6.42,47.19-15.53-8.94,5.44-22.34,8.53-37.29,8.53-26.94,0-48.76-11.21-48.76-25.06h0v-.02ZM71.56,28.72c-.68-.98-1.59-1.76-2.65-2.29-1.16-.56-2.43-.83-3.72-.81-1.56,0-2.96.28-4.18.84-1.15.52-2.15,1.32-2.92,2.31-1.46,1.86-2.22,4.48-2.22,7.58,0,1.37.2,2.68.58,3.84.36,1.13.94,2.17,1.7,3.08,1.56,1.82,3.78,2.78,6.43,2.78,1.39,0,2.52-.14,3.47-.44.82-.26,1.37-.6,1.83-.89,1.11-.74,2.02-1.74,2.65-2.92.54-.99.81-1.93.87-2.41l.04-.33h-3.78v.27c-.11,1.23-1.73,3.43-4.61,3.43-4.11,0-5.09-2.97-5.16-5.6h13.77v-.3c.02-1.54-.15-3.08-.51-4.58-.32-1.27-.86-2.48-1.6-3.56h.01ZM64.76,29.02c3.05,0,4.68,1.64,4.98,5.02h-9.86c.15-2.74,2.32-5.02,4.89-5.02h-.01ZM92.7,31.5c-.34-1.12-.88-2.16-1.6-3.08-.7-.88-1.6-1.58-2.61-2.07-1.1-.51-2.29-.77-3.5-.75-1.1,0-2.19.26-3.17.76-.8.41-1.5.98-2.07,1.67v-8.9h-3.77v26.36h3.58v-1.8c.35.47.78.89,1.26,1.23,1.02.73,2.28,1.1,3.74,1.1,1.57,0,2.99-.35,4.18-1.05,1.06-.62,1.97-1.52,2.68-2.65.66-1.08,1.13-2.26,1.4-3.49.27-1.18.41-2.39.41-3.6.02-1.27-.16-2.53-.54-3.74h0ZM89.31,35.78c0,2.07-.41,3.8-1.21,5.02-.77,1.25-2.15,1.99-3.61,1.94-2.25,0-4.89-1.57-4.89-6.02,0-2.13.27-3.77.81-5.02.78-1.8,2.1-2.66,4.01-2.66,2.04,0,3.42.79,4.18,2.45.63,1.36.72,3.02.72,4.29h-.01Z"/>
    </g>
  </g>
</svg>