<?xml version="1.0" encoding="UTF-8"?>
<svg id="_レイヤー_2" data-name="レイヤー_2" xmlns="http://www.w3.org/2000/svg" viewBox="0 0 90.62 129.46">
  <defs>
    <style>
      .cls-1 {
        fill-rule: evenodd;
      }
    </style>
  </defs>
  <g id="_レイヤー_2-2" data-name="_レイヤー_2">
    <g id="_レイヤー_2-2">
      <path class="cls-1" d="M38.84,0h-12.95C11.59,0,0,11.59,0,25.89c0,7.73,3.39,14.68,8.77,19.42C3.39,50.05,0,57,0,64.73s3.39,14.68,8.77,19.42c-5.38,4.74-8.77,11.69-8.77,19.42,0,14.3,11.59,25.89,25.89,25.89s25.89-11.59,25.89-25.89v-16.41c3.81,2.2,8.23,3.46,12.95,3.46,14.3,0,25.89-11.59,25.89-25.89,0-7.73-3.39-14.68-8.77-19.42,5.38-4.74,8.77-11.69,8.77-19.42,0-14.3-11.59-25.89-25.89-25.89,0,0-25.89,0-25.89,0ZM51.79,12.94v25.89h12.95c7.15,0,12.95-5.8,12.95-12.95s-5.8-12.95-12.95-12.95h-12.95ZM38.84,51.79h-12.95c-7.15,0-12.95,5.8-12.95,12.95s5.8,12.95,12.95,12.95h12.95v-25.89h0ZM25.89,38.84h12.95V12.95h-12.95c-7.15,0-12.95,5.8-12.95,12.95s5.8,12.95,12.95,12.95h0ZM51.79,64.73c0,7.15,5.8,12.95,12.95,12.95s12.95-5.8,12.95-12.95-5.8-12.95-12.95-12.95-12.95,5.8-12.95,12.95ZM25.89,90.63h12.95v12.95c0,7.15-5.8,12.95-12.95,12.95s-12.95-5.8-12.95-12.95,5.8-12.95,12.95-12.95Z"/>
    </g>
  </g>
</svg>