<?xml version="1.0" encoding="utf-8"?>
<!-- Uploaded to: SVG Repo, www.svgrepo.com, Generator: SVG Repo Mixer Tools -->
<svg fill="#000000" width="800px" height="800px" viewBox="0 0 32 32" version="1.1" xmlns="http://www.w3.org/2000/svg">
<title>googleanalytics</title>
<path d="M16.007 12.307l-0.064 0c-2.019 0.114-3.614 1.779-3.614 3.817 0 0.031 0 0.062 0.001 0.093l-0-0.005v9.978c0 2.708 1.192 4.352 2.937 4.702 0.222 0.047 0.477 0.074 0.739 0.074 2.055 0 3.721-1.666 3.721-3.721 0-0.004 0-0.007-0-0.011v0.001-11.195c0-0.002 0-0.004 0-0.007 0-2.056-1.665-3.723-3.72-3.727h-0zM6.169 23.566c-2.052 0-3.715 1.663-3.715 3.715s1.663 3.715 3.715 3.715c2.052 0 3.715-1.663 3.715-3.715v0c-0-2.052-1.663-3.715-3.715-3.715v0zM29.546 4.751v22.492c0 0.006 0 0.013 0 0.020 0 2.059-1.669 3.727-3.727 3.727-0.155 0-0.308-0.009-0.458-0.028l0.018 0.002c-1.857-0.282-3.263-1.868-3.263-3.782 0-0.032 0-0.065 0.001-0.097l-0 0.005v-22.186c-0.001-0.027-0.001-0.059-0.001-0.091 0-1.916 1.41-3.503 3.249-3.78l0.021-0.003c0.13-0.016 0.281-0.025 0.433-0.025 2.059 0 3.728 1.669 3.728 3.728 0 0.007-0 0.013-0 0.020v-0.001z"></path>
</svg>