<?xml version="1.0" encoding="UTF-8"?>
<svg id="_レイヤー_2" data-name="レイヤー_2" xmlns="http://www.w3.org/2000/svg" viewBox="0 0 135.96 135.95">
  <g id="_レイヤー_2-2" data-name="_レイヤー_2">
    <g id="_レイヤー_2-2">
      <path d="M133.4,61.92L74.04,2.56c-1.59-1.58-3.78-2.56-6.2-2.56s-4.61.98-6.2,2.56h0l-12.3,12.32,15.64,15.64c1-.35,2.14-.55,3.34-.55,5.75,0,10.41,4.66,10.41,10.41,0,1.22-.21,2.38-.59,3.47l.02-.07,15.06,15.07c1.01-.36,2.17-.57,3.38-.57,5.75,0,10.41,4.66,10.41,10.41s-4.66,10.41-10.41,10.41-10.41-4.66-10.41-10.41c0-1.42.29-2.77.8-4l-.03.07-14.1-14.03v36.97c3.46,1.75,5.8,5.27,5.8,9.34,0,5.76-4.67,10.43-10.43,10.43s-10.43-4.67-10.43-10.43c0-2.87,1.16-5.47,3.04-7.36h0c.96-.96,2.09-1.73,3.36-2.28l.07-.03v-37.33c-3.82-1.6-6.45-5.32-6.45-9.64,0-1.45.29-2.83.83-4.08l-.03.07-15.36-15.44L2.55,61.63c-1.58,1.59-2.55,3.78-2.55,6.2s.97,4.61,2.55,6.2l59.37,59.35c1.58,1.59,3.77,2.57,6.19,2.57s4.61-.98,6.19-2.57l59.09-59.09c1.59-1.58,2.57-3.78,2.57-6.19s-.98-4.61-2.57-6.19h.01Z"/>
    </g>
  </g>
</svg>