<?xml version="1.0" encoding="UTF-8"?>
<svg id="_レイヤー_2" data-name="レイヤー_2" xmlns="http://www.w3.org/2000/svg" viewBox="0 0 142.91 139.39">
  <g id="_レイヤー_2-2" data-name="_レイヤー_2">
    <g id="_レイヤー_2-2">
      <path d="M71.46.02C31.99.02,0,32.01,0,71.48c0,31.38,20.23,58.04,48.36,67.64l.51.15c3.57.67,4.88-1.53,4.88-3.44,0-1.7-.06-6.19-.09-12.15-19.88,4.31-24.07-9.59-24.07-9.59-1.37-4.41-4.18-8.03-7.88-10.41l-.08-.04c-6.47-4.43.5-4.34.5-4.34,4.7.66,8.64,3.42,10.91,7.29l.04.07c2.64,4.74,7.62,7.9,13.35,7.9,2.74,0,5.32-.72,7.54-2l-.08.04c.34-3.77,2.01-7.1,4.52-9.55h0c-15.87-1.79-32.55-7.94-32.55-35.32v-.42c0-7.25,2.8-13.84,7.37-18.77v.02c-.98-2.58-1.54-5.57-1.54-8.68,0-3.7.79-7.22,2.22-10.4l-.07.16s5.99-1.92,19.65,7.32c5.36-1.53,11.51-2.41,17.87-2.41s12.51.88,18.34,2.53l-.48-.11c13.58-9.24,19.56-7.32,19.56-7.32,1.36,3.06,2.15,6.62,2.15,10.37,0,3.06-.52,5.99-1.49,8.72l.06-.18c4.54,4.92,7.33,11.51,7.33,18.76v.43-.02c0,27.45-16.7,33.5-32.6,35.25,3.01,3.08,4.87,7.3,4.87,11.96,0,.44-.02.89-.05,1.32v-.06c0,9.56-.09,17.25-.09,19.57,0,1.88,1.25,4.11,4.91,3.39,28.73-9.67,49.04-36.35,49.04-67.79C142.91,31.95,110.95,0,71.54,0h-.09.01v.02Z"/>
    </g>
  </g>
</svg>