<?xml version="1.0" encoding="UTF-8"?>
<svg id="_レイヤー_2" data-name="レイヤー_2" xmlns="http://www.w3.org/2000/svg" viewBox="0 0 138.18 138.18">
  <g id="_レイヤー_2-2" data-name="_レイヤー_2">
    <g id="_レイヤー_2-2">
      <g>
        <path d="M92.77,75.5c-.99,1.48-1.97,3.45-2.96,4.93-.99,1.97-1.97,3.45-2.96,4.93,2.96-.49,5.92-.99,8.88-1.48-.99-2.96-1.97-5.43-2.96-8.39h0Z"/>
        <path d="M60.7,86.36c2.96.49,6.42.49,9.87.49s6.42-.49,9.87-.49c1.48-2.96,3.45-5.43,4.93-8.39s3.45-5.92,5.43-8.88c-1.48-2.96-2.96-5.92-4.44-8.88-1.97-2.96-3.45-5.92-5.43-8.39-3.45-.49-6.42-.49-9.87-.49s-6.91.49-9.87.49c-1.97,2.47-3.95,5.43-5.43,8.39s-2.96,5.92-4.44,8.88c1.48,2.96,2.96,5.92,4.44,8.88s2.96,5.92,4.93,8.39h.01ZM70.57,58.72c5.92,0,10.36,4.44,10.36,10.36s-4.44,10.36-10.36,10.36-10.36-4.44-10.36-10.36,4.44-10.36,10.36-10.36Z"/>
        <path d="M86.85,52.8c.99,1.48,1.97,2.96,2.96,4.93.99,1.48,1.97,3.45,2.96,4.93.99-2.47,1.97-5.43,2.96-8.39-2.96-.49-5.92-.99-8.88-1.48h0Z"/>
        <path d="M53.3,85.37c-.99-1.48-1.97-2.96-2.96-4.93-.99-1.48-1.97-3.45-2.96-4.93-.99,2.96-1.97,5.43-2.96,8.39,2.96.49,5.92.99,8.88,1.48h0Z"/>
        <path d="M97.71,48.85c.49-1.97.49-4.44.99-6.42.99-8.39-.49-14.8-3.45-16.78-.49-.49-1.48-.49-2.47-.49-4.44,0-11.35,3.45-18.26,10.36,2.96,2.96,5.92,6.91,8.88,10.86,4.93.49,9.87,1.48,14.31,2.47Z"/>
        <path d="M50.83,57.74c.99-1.48,1.97-3.45,2.96-4.93-2.96.49-5.92.99-8.88,1.48.99,2.47,1.97,5.43,2.96,8.39.49-1.48,1.48-3.45,2.96-4.93h0Z"/>
        <path d="M70.07,46.39h5.92c-1.97-2.47-3.95-4.93-5.92-6.91-1.97,1.97-3.95,4.44-5.92,6.91h5.92Z"/>
        <path d="M97.22,88.33c-3.95,1.48-8.88,1.97-13.82,2.47-2.96,4.44-6.42,7.9-9.38,11.35,7.4,7.4,14.31,10.86,18.75,10.86.99,0,1.97,0,2.47-.49,3.45-1.97,4.44-8.39,3.45-16.78-.49-1.97-.99-4.44-1.48-7.4h.01Z"/>
        <path d="M107.58,57.74c-1.97-.49-3.95-1.48-6.42-1.97-.99,3.95-2.96,8.88-4.93,13.32,1.97,4.44,3.45,8.88,4.93,13.32,2.47-.99,4.44-1.48,6.42-2.47,7.9-2.96,12.83-7.4,12.83-10.86,0-3.95-4.93-7.9-12.83-11.35h0Z"/>
        <path d="M70.07,91.79h-5.92c1.97,2.47,3.95,4.93,5.92,6.91,1.97-1.97,3.95-4.44,5.92-6.91,0,0-5.92,0-5.92,0Z"/>
        <path d="M118.44,0H19.74C8.88,0,0,8.88,0,19.74v98.7c0,10.86,8.88,19.74,19.74,19.74h98.7c10.86,0,19.74-8.88,19.74-19.74V19.74c0-10.86-8.88-19.74-19.74-19.74ZM102.15,87.84c3.45,14.31,1.97,25.66-4.44,29.61-1.48.99-3.45,1.48-5.43,1.48-5.92,0-14.31-4.44-22.21-12.34-7.9,7.9-15.79,12.34-22.21,12.34-1.97,0-3.95-.49-5.43-1.48-6.91-3.95-7.9-15.3-4.44-29.61-13.82-4.44-23.19-10.86-23.19-18.75s9.38-14.31,23.19-18.75c-3.45-14.31-1.97-25.66,4.44-29.12,1.48-.99,3.45-1.48,5.43-1.48,6.42,0,14.31,4.44,22.7,12.34,7.9-7.9,15.79-12.34,22.21-12.34,1.97,0,3.45.49,5.43,1.48,6.42,3.45,7.9,14.8,4.44,29.12,13.82,4.44,23.19,10.86,23.19,18.75,0,7.4-9.38,14.31-23.69,18.75h.01Z"/>
        <path d="M43.43,49.35c4.44-.99,9.38-1.97,14.31-2.47,2.96-3.95,5.92-7.4,8.88-10.86-7.4-7.4-14.31-10.86-18.75-10.86-.99,0-1.97,0-2.47.49-3.45,1.97-4.44,8.39-3.45,16.78,0,1.97.49,4.44,1.48,6.91h0Z"/>
        <path d="M39.48,55.27c-2.47.49-4.44.99-6.42,1.97-7.9,3.45-12.83,7.9-12.83,11.35,0,3.95,4.93,7.9,12.83,11.35,1.97.99,3.95,1.97,6.42,1.97.99-4.44,2.96-8.88,4.93-13.32-1.97-4.44-3.45-8.88-4.93-13.32Z"/>
        <path d="M43.43,88.83c-.99,2.47-.99,4.93-1.48,6.91-.99,8.39.49,14.8,3.45,16.78.49.49,1.48.49,2.47.99,4.44,0,11.35-3.95,18.75-10.86-3.45-3.45-6.42-7.4-9.38-11.35-4.93-.49-9.38-1.48-13.82-2.47h.01Z"/>
      </g>
    </g>
  </g>
</svg>