<?xml version="1.0" encoding="UTF-8"?>
<svg id="_レイヤー_2" data-name="レイヤー_2" xmlns="http://www.w3.org/2000/svg" viewBox="0 0 133.13 133.13">
  <g id="_レイヤー_2-2" data-name="_レイヤー_2">
    <g id="_レイヤー_2-2">
      <path d="M0,66.56v66.57h133.13V0H0v66.57h0ZM107.28,61.25c3.38.84,5.96,2.36,8.34,4.81,1.21,1.3,3.03,3.68,3.19,4.27.04.17-5.74,4.05-9.25,6.22-.13.09-.65-.45-1.21-1.3-1.71-2.49-3.51-3.57-6.26-3.77-4.03-.26-6.63,1.84-6.61,5.38-.02.87.17,1.73.56,2.49.89,1.84,2.56,2.95,7.71,5.18,9.54,4.09,13.61,6.8,16.14,10.64,2.84,4.29,3.47,11.14,1.56,16.25-2.12,5.53-7.37,9.29-14.74,10.53-2.28.41-7.69.35-10.14-.11-5.35-.95-10.42-3.6-13.54-7.06-1.24-1.34-3.62-4.88-3.47-5.11.07-.09.61-.43,1.21-.78s2.84-1.65,4.94-2.86l3.84-2.23.8,1.19c1.13,1.71,3.57,4.05,5.05,4.83,4.25,2.25,10.08,1.93,12.96-.65,1.17-.97,1.82-2.47,1.73-3.99,0-1.54-.2-2.23-1-3.38-1.04-1.47-3.14-2.73-9.14-5.33-6.87-2.97-9.84-4.79-12.52-7.71-1.69-1.93-2.95-4.2-3.66-6.65-.5-1.88-.63-6.61-.24-8.5,1.41-6.65,6.44-11.27,13.65-12.63,2.34-.45,7.8-.28,10.1.28h0ZM76.04,66.83l.04,5.44h-17.34v49.26h-12.26v-49.26h-17.31v-5.33c0-2.97.07-5.44.15-5.5.07-.09,10.6-.13,23.38-.11l23.27.07.07,5.44h0Z"/>
    </g>
  </g>
</svg>