<?xml version="1.0" encoding="UTF-8"?>
<svg id="_レイヤー_2" data-name="レイヤー_2" xmlns="http://www.w3.org/2000/svg" viewBox="0 0 142.63 142.63">
  <defs>
    <style>
      .cls-1 {
        fill-rule: evenodd;
      }
    </style>
  </defs>
  <g id="_レイヤー_2-2" data-name="_レイヤー_2">
    <g id="_レイヤー_2-2">
      <path id="wordpress-_x5B__x23_139_x5D_" class="cls-1" d="M133.9,37.1c.31,2.27.48,4.7.48,7.33,0,12.54-1.16,13.24-27.21,88.53,21.2-12.36,35.46-35.34,35.46-61.64,0-12.4-3.17-24.06-8.74-34.21h.01ZM72.58,77.55l-21.4,62.17c14.44,4.25,29.74,3.82,43.83-1.13-.19-.31-.36-.63-.51-.99l-21.92-60.05h0ZM119.47,67.71c0-8.82-3.17-14.92-5.88-19.67-3.61-5.87-7-10.85-7-16.72,0-6.55,4.98-12.66,11.98-12.66.31,0,.61.04.92.06C106.8,7.1,89.9,0,71.33,0,46.42,0,24.5,12.78,11.75,32.14c4.54.14,10.64.2,23.6-.81,3.84-.23,4.29,5.42.46,5.87,0,0-3.87.46-8.17.69l25.97,77.25,15.6-46.81-11.11-30.44c-3.84-.22-7.47-.68-7.47-.68-3.84-.23-3.39-6.1.45-5.87,14.74,1.13,22.28,1.22,37.79,0,3.84-.23,4.3,5.42.46,5.87,0,0-3.87.46-8.17.68l25.77,76.66c10.18-34,12.54-39.69,12.54-46.82h0v-.02ZM.01,71.31C.01,99.54,16.41,123.93,40.2,135.49L6.18,42.29C2.22,51.16,0,60.97,0,71.31h.01Z"/>
    </g>
  </g>
</svg>